<?xml version="1.0" standalone="no"?>
<!DOCTYPE svg PUBLIC "-//W3C//DTD SVG 20010904//EN"
 "http://www.w3.org/TR/2001/REC-SVG-20010904/DTD/svg10.dtd">
<svg version="1.0"
    xmlns="http://www.w3.org/2000/svg" width="305.000000pt" height="305.000000pt" viewBox="0 0 305.000000 305.000000" preserveAspectRatio="xMidYMid meet">
    <metadata>
Created by potrace 1.11, written by Peter Selinger 2001-2013
    </metadata>
    <g transform="translate(0.000000,305.000000) scale(0.100000,-0.100000)" fill="#000000" stroke="none">
        <path d="M1798 3015 c-128 -32 -261 -123 -342 -233 -19 -26 -145 -285 -280
-574 -252 -541 -266 -577 -233 -619 36 -47 111 -53 148 -11 14 15 63 108 109
207 46 99 108 232 137 295 l54 115 32 -60 c18 -33 61 -89 97 -125 232 -232
596 -236 835 -8 277 262 239 714 -78 926 -107 71 -178 93 -312 98 -74 2 -129
-1 -167 -11z m305 -218 c80 -37 168 -123 203 -200 26 -55 29 -73 29 -162 0
-81 -4 -111 -23 -157 -65 -162 -263 -272 -431 -241 -173 33 -301 158 -332 328
-34 187 79 378 264 446 78 28 212 22 290 -14z"/>
        <path d="M1984 1498 c-18 -4 -38 -18 -46 -30 -8 -13 -70 -142 -138 -288 -67
-146 -129 -278 -138 -295 l-15 -29 -30 59 c-42 84 -152 190 -247 238 -328 165
-722 4 -840 -343 -31 -88 -37 -232 -16 -323 62 -263 278 -447 546 -464 210
-13 421 90 533 259 19 29 143 286 276 571 253 544 262 569 224 616 -23 27 -70
40 -109 29z m-719 -516 c161 -76 258 -257 227 -422 -25 -138 -106 -245 -230
-303 -61 -29 -76 -32 -162 -32 -75 1 -107 5 -153 24 -81 32 -168 115 -209 199
-31 62 -33 73 -33 172 0 93 3 112 27 162 30 64 95 139 150 174 114 73 261 82
383 26z"/>
    </g>
</svg>
