<?xml version="1.0" standalone="no"?>
<!DOCTYPE svg PUBLIC "-//W3C//DTD SVG 20010904//EN"
 "http://www.w3.org/TR/2001/REC-SVG-20010904/DTD/svg10.dtd">
<svg version="1.0"
    xmlns="http://www.w3.org/2000/svg" width="368.000000pt" height="368.000000pt" viewBox="0 0 368.000000 368.000000" preserveAspectRatio="xMidYMid meet">
    <metadata>
Created by potrace 1.11, written by Peter Selinger 2001-2013
    </metadata>
    <g transform="translate(0.000000,368.000000) scale(0.100000,-0.100000)" fill="#000000" stroke="none">
        <path d="M2115 3475 c-131 -37 -200 -69 -280 -132 -88 -69 -129 -136 -265
-425 -70 -150 -150 -322 -179 -381 -28 -60 -51 -110 -51 -111 0 -2 -29 -65
-65 -139 -68 -143 -81 -180 -76 -211 13 -88 134 -111 183 -34 8 13 27 52 43
88 15 36 50 112 78 170 74 157 117 250 139 300 l19 44 27 -53 c37 -74 152
-190 233 -234 36 -21 101 -46 144 -57 338 -86 665 122 740 470 21 100 2 252
-44 355 -29 63 -101 165 -138 195 -86 70 -162 112 -256 142 -29 9 -229 19
-252 13z m210 -212 c172 -50 286 -202 286 -383 1 -157 -84 -291 -231 -363 -60
-29 -73 -32 -165 -32 -93 0 -105 2 -165 32 -212 105 -294 337 -190 542 49 97
164 190 256 207 16 3 30 7 32 9 9 9 132 1 177 -12z"/>
        <path d="M2231 1934 c-24 -17 -87 -144 -261 -526 -34 -76 -47 -95 -57 -86 -7
6 -13 15 -13 20 0 14 -58 97 -100 142 -69 75 -200 147 -312 170 -35 8 -99 12
-143 10 -247 -9 -454 -163 -543 -402 -32 -87 -40 -246 -16 -337 71 -270 302
-454 574 -457 194 -2 369 83 487 237 44 58 46 62 293 594 73 157 156 334 184
395 67 141 70 149 56 191 -19 59 -98 84 -149 49z m-736 -489 c276 -93 362
-432 165 -648 -187 -204 -526 -155 -648 93 -35 71 -36 79 -36 185 -1 80 3 97
31 158 87 185 297 276 488 212z"/>
    </g>
</svg>
